<?xml version="1.0" encoding="utf-8"?>
<!-- Generator: Adobe Illustrator 23.0.3, SVG Export Plug-In . SVG Version: 6.00 Build 0)  -->
<svg version="1.1" id="Layer_1" xmlns="http://www.w3.org/2000/svg" xmlns:xlink="http://www.w3.org/1999/xlink" x="0px" y="0px"
	 viewBox="0 0 1748.96 1430.37" style="enable-background:new 0 0 1748.96 1430.37;" xml:space="preserve">
<style type="text/css">
	.st0{fill:#D4CBBC;}
	.st1{fill:#405162;}
	.st2{fill:#FFFFFF;}
	.st3{fill:#AFA79C;}
	.st4{fill:#C1965B;}
	.st5{fill:#B29B97;}
	.st6{fill:#E0CBC6;}
	.st7{fill:#DEDDDB;}
	.st8{fill:#81643C;}
</style>
<g>
	<path class="st0" d="M908.28,0c-11.83,0-26.29,0.26-38.16,0.93c-82.07,4.59-158.29-5.35-307.08,57.75l1.43-0.58
		c-19.58,7.96-64.81,30.54-86.2,45.47c-32.17,22.69-33.52,19.07-57.75,41.17l-0.68,0.55c-17.12,13.86-48.29,35.34-88.33,81.21
		c-63.56,72.83-78.35,100.55-117.47,174.6c-41.49,78.26-75.78,199.44-84.54,249.34c-11.61,65.82-9.52,53.45-14.03,100.02
		c-4.67,48.13-6.15,68-3.95,104.88c1.63,27.43-2.61,47.54,9.07,109.57c1.96,10.41,2.39,19.33,2.88,31.25
		c0.14,3.35,2.67,5.88,5.88,5.88c3.12,0,6.01-2.69,5.87-5.88c-1.39-33.45-3.44-30.5-7.25-61.76l-0.02-0.2
		c4.73,5.17,15.41,9.73,25.32,9.73c10.24,0,18.48-4.05,18.35-4c16.44-6.46,29.89-11.95,35.13-17.16c4.69-5.57,5.38-7.34,9.73-44.17
		c3.62-30.61,3.79-20.06,8.94-64.9c2.25-19.6,8.89-73.96,10.3-86.94c3.74-34.6,6.41-37.36,17.63-96.04
		c2.01-10.52,14.71-52.11,19.15-64.53c20.09-56.23,17.39-56.57,29.37-81.77c13.63-28.69,13.85-34.64,23.72-54.26
		c12.56-24.91,45.11-75.26,61.3-96.74l-1.15,1.44c24.35-30.63,20.29-24.76,28.48-34.06c33.31-37.88,37.22-42.44,85-75.95
		c41.48-29.04,24.01-19.29,92.7-54.5c32.23-16.56,123.4-40.62,138.18-43.55c42.81-8.55,131.33-16.55,179.3-11.38
		c46.52,6.33,127.17,18.3,174.6,28.86c35.77,7.93,92.97,33.36,117.98,48.97c72.93,45.56,95.05,71.47,123.75,107.48l-0.02-0.03
		c2.59,3.32,5.83,7.32,9.37,11.46c10.17,11.91,27.48,40.05,27.39,39.91c7.77,12.24,24.37,34.11,43.2,70.57
		c4.33,8.36,7.46,12.92,10.95,20.1c7.06,14.54,17.57,36.04,23.08,45.36c6.81,11.52,10.94,20.58,10.87,20.45
		c5.96,12.39,14.63,28.74,14.56,28.61c24.32,46.8,16.5,45.06,30.26,85.61l0.39,1.15c7.7,22.76,9.41,40.77,10.7,47.06
		c6.5,31.45,2.33,41.58,8.01,83.6c4.32,36.04-0.35,58.98,1.8,87.74c1.42,18.65-4.28,55.98,13.73,74.2c4.38,4.42,9.72,4.05,9.59,4.02
		c3.22-0.1,6.06-1.53,9.01-2.49c4.56,9.34,1.83,18.8,7.21,34.09c9.86,27.8,18.3,12.59,40,8.98c1.95-0.2,3.88-0.44,5.73-0.72
		c6.74-1,10.1-4.75,13.09-5.18c3.93-0.59,7.71-4.48,8.68-9.05c0.21-0.98,0.29-2.01,0.43-3.01c14.9-103.57,18.14-176.82,3.81-281.75
		l0.06,0.52c-5.7-45.14-12.6-91.13-26.97-138.23c-6.97-22.86-6.26-24.84-12.24-40.68l-0.44-1.18
		c-14.94-39.6-38.56-91.81-50.6-114.55c-6.65-12.55-4-6.51-14.43-23.97c-1.83-3.05-3.55-6.14-5.14-9.03
		c-24.95-45.28-15.16-23.76-39.67-63.41c-8.85-14.31-5.7-8.66-20.8-28.28l0.17,0.25c-9.54-12.64-12.16-13.75-19.93-23.66
		c-19.8-25.55-35.79-37.93-50.8-52.76c-7.03-6.94-9.23-7.5-16.7-15.9c-1.64-1.84-3.33-3.75-5.17-5.46
		c-3.99-3.71-11.93-9.42-11.79-9.31c-1.61-1.31-3.15-2.72-4.71-4.08c-1.97-1.71-4.25-3.45-7.16-5.5
		c-9.6-6.72-34.21-19.57-45.59-26.52c-9.33-5.69-12.62-8.35-18.77-12.02c-2.6-1.55-5.31-2.89-7.94-4.35
		c-3.17-1.76-8.72-4.77-8.58-4.7c-52.98-28.85-66.31-29.04-89.38-37.1c-27.01-9.43-72.37-18.01-98.1-21.22
		C1024.27,6.51,967.46,6,958.48,4.6c-1.9-0.3-3.29-0.49-4.91-0.7c0,0-0.15-0.02-0.15-0.02C939.86,2.07,922.68,0,908.28,0L908.28,0
		L908.28,0z"/>
	<path class="st4" d="M841.81,202.12c-8.83,0.03-17.22-0.14-25.77,1.99c-10.57,0.49-20.53,1.87-31.04,3.28l0.43-0.03
		c-4.5,0.64-18.44,2.07-42.33,6.83c-81.73,16.35-120.78,31.17-199.18,90.55l0.3-0.21c-22.6,17.04-42.09,34.13-69.13,68.97l0.63-0.78
		l-0.99,1.24l0.12-0.11l0.1-0.13c-13.76,17.68-31.05,44.21-30.95,44.07c-14.36,21.06-22.31,33.88-46.13,92.57
		c-2.07,5.12-3.93,10.4-5.88,15.56c-7.85,20.72-4.78,18.48-14.62,46.37c-12.21,34.58-22.51,82.95-38.96,143.7
		c-2.03,7.48-6.41,29.79-6.93,32.49c-11.2,58.44-6.69,51.66-15,100.11c-1.51,8.77,10.09,9.46,11.19,3.08
		c0.53-3.08,1.03-6.16,1.52-9.24c2.75,4.61,6.62,6.12,12.09,7.59c7.97,2.14,36.41,6.2,50.09,4.11
		c10.89-1.63,10.05-17.36,15.57-40.59c3.7-15.58,4.25-10.23,10.18-41.74c5.73-30.34,7.38-24.9,13.03-57.06
		c1.28-7.33,5.11-25.58,5.08-25.45c1.4-7,2.17-10.13,2.14-9.99c2.13-9.2,4.83-18.52,7.53-28.75c9.3-35.13,20.86-61.88,20.6-61.2
		c17.1-43.25,33.59-78.77,61.28-116.27c28.31-38.33,39.61-49.39,62.61-67.2l-0.71,0.52c23.36-17.83,39.27-28.69,39.13-28.6
		c12.32-8.34,41.95-24.42,50.31-28.4c0.14-0.07,49.46-22.68,80.7-32.15c37.62-11.41,116.72-17.81,143.64-18.57
		c43.08-1.22,13.88-2.33,53.38,0.14c6.19,0.39,12.4,0.96,18.44,1.71c1,0.28,1.99,0.56,2.98,0.83
		c55.24,14.74,29.99,10.16,72.24,22.01c2.48,0.69,5.01,1.3,7.46,2.06c11.53,3.55,24.87,12.67,24.73,12.58
		c33.39,20.87,47.92,39.95,67.31,56.64c5.93,5.1,5.67,5.02,11.13,10.34c4.03,3.92,8.19,7.98,11.96,12.27c5.33,6.08,8,8.75,7.87,8.61
		c5.49,5.65,10.44,12.31,16.28,20.59c6.51,9.23,6.39,8.06,14.08,21.05c37.65,63.59,35.57,61.81,61.77,131.54
		c1.83,4.86,4.06,9.65,6.11,14.4c8.36,20.57,11.92,34.61,11.88,34.47c10.86,37.06,12.4,20.63,31.88,145.73
		c1.77,15.48,5.64,103.42,11.43,124.95c1.21,4.46,4.62,13.19,9.13,18.63c3.2,3.84,8.28,5.66,12.62,7.68
		c8.35,3.89,16.93,8.47,31.72,9.56c6.18,0.45,12.51-0.07,17.48-3.69c3.49-2.54,7.56-7.15,9.7-10.45c5.99-9.23,7.18-24.86,7.16-24.73
		c8.2-0.77,5.4-6.63,6.24-74.62c0.13-10.08,0.29-14.49,0.59-21.36c1.45-32.51-4.29-106.82-13.79-142
		c-13.26-49.05-8.57-34.04-20.5-67.43c-47.53-133.41-54.65-129.24-78.34-166.66c-7.9-12.48-12.01-18.89-15.03-22.57
		c-15.98-19.55-28.69-41.98-46.74-58.18c-7.67-6.88-7.92-8.41-17.91-20.66c-4.83-5.93-12.3-13.33-12.16-13.2
		c-0.22-0.22-5.69-5.77-5.6-5.68c-10.39-10.47-10.86-11.59-14.58-14.98c-1.14-1.04-2.36-2.06-3.46-3.17
		c-0.94-0.96-1.89-1.92-2.86-2.85c-4.21-4.02-7.77-5.34-7.63-5.26c-10.75-10.17-21.4-15.51-21.26-15.43
		c-2.51-2.12-16.54-12.46-23.8-16.31c-5.35-2.84-6.43-3.61-7.82-4.5c-4.5-2.9-9.31-5.31-9.18-5.23c-10.11-5.41-4.14-2.39-13.85-6.22
		c-3.44-1.55-6.85-3.3-10.4-4.66c-2.11-0.81-5.71-1.72-5.57-1.68c-8.56-2.29-20.31-7.95-32.76-11.21
		c-14.75-3.86-30.85-12.06-51.09-14.24c-4.62-0.76-2.3-0.73-15.29-3.5c-1.87-0.41-4.7-1.21-4.56-1.17c-1.47-0.4-4.95-1.2-4.81-1.17
		c-4.68-1.11-6.67-1.15-14.28-2.39l-0.14-0.02c-2.69-0.43-5.44-0.61-8.16-0.92c-2.39-0.27-4.83-0.57-7.3-0.7
		c-6.56-0.36-5.32-0.95-16.13-1.42c-0.4-0.02-8.4-0.98-10.8-1.22c-22.96-2.24-64.83-2.96-84.01-2.54c-0.17-0.01,0.62,0.05-1.69-0.14
		C844.95,202.14,843.32,202.12,841.81,202.12L841.81,202.12L841.81,202.12z"/>
	<path class="st6" d="M916.74,334.79c-23.18,0-42.65,3.8-41.36,3.59c-61.85,10.03-50.05-1.33-143.98,33.45
		c-12.79,4.72-13.07,5.84-29.1,12.99c-43.69,19.47-8.41,3.91-48.34,23.33c-40.69,19.71-79.92,69.26-105.12,106.65
		c-0.6,0.9-1.21,1.79-1.81,2.68c-24.96,36.63-23.23,36.31-38.07,64.83c-26.2,50.39-49.42,153.41-54.54,193.46
		c-6.36,44.15-3.98,26.12-5.32,48.68l-0.51,2.85c-2.22,12.63-2.41,40.38,3.2,62.5c1.04,4.1,6.34,20.42,6.01,19.4
		c4.77,14.84,7.17,17.02,12.19,21.78c5.67,5.37,13.91,12.79,20.42,17.1c3.84,2.54,10.3,4.65,10.17,4.6
		c11.97,4.33,20,7.01,27.78,4.01c11.45-4.42,5.52-17.32,11.01-62.9c9.91-83.22,16.36-150.36,47.71-225.53l0.07-0.17l0.07-0.17
		l0.1-0.24l0.14-0.33l-0.08,0.15l-0.01-0.01c8.72-19.59,2.11-7.06,30.33-55.94c12.01-20.83,46.04-67.44,58.24-80.49
		c37.32-39.96,48.03-50.36,95.77-73.21c58.76-20.15,86.52-24.16,144.79-24.16c13.43,0,48.72,5.95,56.91,8.12
		c16.78,4.43,18.16,7.26,34.12,14.8c51.19,37.21,61.27,39.65,92.39,96.62c9.15,16.77,25.95,61.6,25.9,61.47
		c26.88,68.62,45.09,183.32,56.7,246.54c5.87,31.93,16.74,107.1,34.99,122.34c3.65,3.03,6.92,3.94,6.78,3.88
		c8.13,3.32,32.88-6.18,40.66-12.12c6.44-4.93,17.94-20.97,20.62-25.47c12.13-20.32,6.15-42.54,5.12-89.38
		c-1.29-58.77-11.47-99.12-14.84-116.53c-11.81-60.9-20.73-78.76-32.93-114.24c-20.04-58.3-59.95-135.98-80.84-168.83
		c-18.89-29.74-18.8-26.57-41.9-50.47c-3.78-3.91-5.19-6.35-12.04-12.37c-26.51-23.29-53.32-32.31-51.55-31.63
		c-7.86-3.02-7.94-3.35-16.64-5.93c-6-1.78-8.94-2.89-8.81-2.84c-20.54-7.19-18.21-8.71-33.84-11.51
		c-33.4-6.01-40.15-9.36-61.58-9.72l0-0.01C935.48,336.38,926.93,334.79,916.74,334.79L916.74,334.79L916.74,334.79z"/>
	<path class="st5" d="M861.51,478.03c-14.87,0-25.58,3.45-46.06,6.42c-21.35,3.1-25.51,6.11-50.71,15.5
		c-7.73,2.88-14.08,5.01-33.76,20.04c-49.8,38.06-58.05,56.79-96.33,123.92c-19,33.32-36.76,64.77-53.46,166.25
		c-1.77,10.7-2.28,17.53-3.79,30.77c-3.34,29.4-1.36,27.5-3.68,44.85c-0.77,5.75-1.16,23.35-1.48,36.87
		c-0.07,2.77,2.01,5.27,4.84,5.81c2.66,9.73,7.56,16.97,21.55,21.32c8.87,2.74,42.02,5.82,56.57,1.57c6-1.72,8.32-6.04,8.21-5.88
		c9.17-12.42,3.8-81.09,26.2-186.85c9.8-46.3,25.76-74.49,49.83-114.35c13.63-22.58,21.65-28.07,44.29-44.05
		c1-0.7,4.99-3.2,8.13-4.86c12.38-6.59,13.19-6.99,38.55-11.06c44.47-4.51,87.93,11.52,87.32,11.37
		c21.94,8.38,20.58,9.61,32.26,16.67c3.42,2.06,3.75,2.12,6.1,3.92c11.18,9.24,25.66,26.98,30.35,34.71
		c6.64,10.98,16.22,41.13,23.29,57.2c3.58,9.49,3.36,11.25,12.12,36.62c5.94,17.2,9.25,34.64,16.91,55.67
		c5.9,16.19,4.16,15.45,15.98,58.07c3,10.84,4.56,20.26,9.57,38.64c2.11,7.74,3.23,9.7,7.52,34.66c2.37,13.77,9.62,49.52,9.03,46.78
		c1.06,4.92,4.17,9.84,9.25,9.87c1.53-0.27,0.03,0.92,7.96-2.71c17.81-7.14,29.8-7.38,46.64-18.74c8.8-5.94,8.49-13.47,7.13-27.79
		c-3.62-38.04,0.82-37.35-4.92-79.89c-3.91-30.45-7.33-33.05-11.59-56.3l-0.22-1.18c-8.49-46.18-2.03-16.76-12.04-56.64
		c-15.08-60.1-3.01-22.46-24.92-91.3c-9.51-29.87-7.54-28.42-20.63-54.09c-8.62-16.91-2.96-12.89-29.5-48.23
		c-16.34-21.77-42.6-42.44-49.71-45.98c-11.35-5.66-51.67-16.23-55.75-17.04c-14.27-2.81-21.26-2.75-43.76-7.27
		C888.56,479.26,882.39,478.03,861.51,478.03L861.51,478.03L861.51,478.03z"/>
	<path class="st2" d="M852.36,378.98c-40.51,3.19-54.2,6.06-100.75,25.05c-2.41,0.98-4.89,1.88-7.23,3c-7.98,3.81-9.4,5-32.12,16.63
		c-26.46,13.58-75.12,51.96-104.09,89.63c-75.55,98.13-85,149.73-112.97,272.73c-7.65,33.59-12.78,91.19-13.73,130.45
		c-0.07,3.14,2.68,5.76,5.77,5.76c3.2,0,5.69-2.63,5.76-5.76c1.04-42.9,6.02-88.46,10.76-114.3c1.49-8.12,3.42-16.15,5.2-24.21
		c9.63-43.62,20.01-89.88,40.89-142.69c25.88-65.24,76.09-127.63,98.92-148.51c23.53-21.49,48.82-42.22,76.04-55.49
		c4.68-2.28,13.33-7.52,25.92-13.51c45.82-18.35,56.08-20.52,74.69-23.07c18.02-2.33,29.95-3.11,33.99-3.24
		c5.94-0.18,21.52,1.45,24.96,2.27c30,7.18,35.52,3.25,66.6,12.79c44.92,13.76,35.52,5.03,65.11,16.59
		c40.49,17.65,63.59,34.2,97.12,76.47c22.34,30.03,47.46,92.34,59.41,127.84c61.45,182.55,55.98,233.77,63.36,286.13
		c6.17,43.44,7.48,47.44,7.46,53.33c-0.02,3.65,3.05,6.7,6.7,6.7c3.73,0,6.6-3.05,6.7-6.7c0.12-3.99-0.9-11.1-1.72-16.65
		c-0.7-4.79-1.43-9.58-2.17-14.37c-1.27-8.17-2.44-16.36-3.59-24.55c-10.19-89.26-2.68-54.15-22.97-149.8
		c-11.08-52.17-53.99-190.24-94.08-257.05c-13.66-22.78-55.23-66-79.77-77.84c-35.84-17.23-36.46-19.45-62.24-23.78
		c-42.43-7.07-29.6-11.74-82.29-17.68C890.63,382.59,875.91,377.1,852.36,378.98L852.36,378.98L852.36,378.98z"/>
	<g>
		<path class="st7" d="M711,1155.26c-8.55-15.18-16.9-25.62-35.52-34.19c8.42-8.77,14.69-20.82,19.21-30.25
			c13.38-27.96,16.71-44.58,17.58-62.65c1.94-41-6.05-64.56-16.33-83.25c-9.87-18.05-37.4-44.05-51.46-52.53
			c-11.43-6.95-48.8-20.15-70.66-19.69c-26.14,0.28-35.47,2.36-36.92,2.48c-3.24-8.92-8.21-19.05-8.14-18.92
			c-5.91-12.62-8.62-15.54-17.32-24.88c-9.37-10.15-17.58-16.21-17.1-15.84c-9.8-7.58-11.85-9.88-21.34-14.64
			c-22.1-11.18-33.43-14.75-56.38-16.6c-31.11-2.52-61.99,0.26-90.06,14.77c-27.43,14.07-50.42,53.27-59.76,83.1
			c-1.98-2.18-4.47-4.22-7.36-6.07c-21.66-13.88-37.71-21.46-69.83-23.71c-0.14-0.01-1.79-0.12-1.65-0.11
			c-7.96-0.54-15.82-0.37-23.61,0.88c-9.09,1.42-18.56,3.21-27.14,6.71c-39.65,16.17-65.27,34.78-81.9,77.59
			c-4.12,10.63-7.73,36.35-5.71,53.6c1.81,15.59,10.41,35.66,17.6,46.91c-15.86,5.46-28.17,19.76-28.04,19.63
			C2.33,1095.3-7.71,1157.85,5.64,1188.47l-0.05-0.33l-0.13-0.3c8.65,20.52,23.44,38.54,39.55,49.64c5.7,3.95,11.92,7.01,17.8,9.73
			c17.7,8.21,35.27,9.3,57.4,9.46c-0.14,0.01-4.71,26.22-0.65,44.58c4.83,21.66,16.99,43.3,28.75,56.65
			c10.34,11.71,32.18,28.99,50.65,36.97c21.3,9.19,25.09,10.36,42.59,11.63c50.51,3.54,88.51-9.77,116.92-49.93
			c1.96,3.18,4.36,5.82,6.92,8.71c8.03,9.19,11.83,11.14,13.6,12.7l-0.07-0.16l0.3,0.34l0.43,0.33c9.39,7.2,13.38,9.66,23.84,14.52
			c16.07,7.5,28.33,11.74,50.99,13.2c1.4,0.07,8.78,0.68,17.38,0.68c2.06,0,4.14-0.03,6.17-0.1c22.15-0.82,40.03-6.13,60.61-21.07
			c29.29-21.22,44.05-43.33,50.95-64.67c2.44-7.47,5.37-26.17,3.01-44.52c0.74,0.4,5.98,1.05,6.71,1.14
			c3.03,0.36,6.06,0.69,9.1,1.01c14.29,1.47,19.76,1.18,20.64,1.21c32.16-0.33,65.59-19.22,79.99-40.78
			c4.93-7.32,13.58-34.48,11.63-50.4C718.98,1175.37,717.29,1166.31,711,1155.26z"/>
		<path class="st7" d="M1738.9,1062.26c-4.98-13.08-8.4-15.89-18.24-27.67c-7.29-8.67-12.59-12.92-21.67-18.47
			c-12.5-7.63-9.09-9.27-30.95-16.62c2.91-7.42,6.41-17.11,6.77-31.99c0.94-37.69-6.54-56.64-18.67-73.47
			c-0.1-0.14-2.4-3.38-2.25-3.18c-14.03-19.86-19.9-23.13-20.73-23.98c-6.38-5.01-19.85-13.09-31.9-17.89
			c-4.58-1.83-9.33-3.41-14-4.97c-13.36-4.44-24.17-9.03-46.39-7.51c-39.32,2.79-53.67,3.59-85.98,21.45
			c-36.91,20.23-34.62,21.32-35.68,21.99c-3.14-7.03-11.57-20.97-21.53-30.79c-6.39-5.38-8.37-10.48-26.57-18.33
			c-3.35-1.45-6.81-2.94-10.41-3.77c-13.59-3.15-29.62-3.05-43.59-1.99c-31.63,2.39-41.83,9.62-51.99,17.87
			c-19.06,15.46-27.49,32.99-34.1,52.08c-16.09-6.19-45.56-5.91-63.8-4.16c-43.85,4.23-63.92,32.32-59.27,27.41
			c-2.14,2.21-18.69,10.92-33.05,43.92c-5.79,13.34-6.8,23.98-6.78,23.84c-0.91,15.95-13.31,61.7,21.57,99.07
			c-49.32,29.22-63.9,100.76-54.83,131.9c6.16,21.2,12.15,28.82,25.46,43.61l0.13,0.14c8.76,9.06,12.39,12.66,35.45,20
			c4.75,1.51,12.93,3.1,18.34,3.89c0.14,0.02,2.56,0.38,2.41,0.36c14.52,2.16,16.75,1.65,18.01,1.74
			c8.51-0.05,18.95-2.27,25.11-4.55c1.13,25.44,19.11,64.76,31.75,80.85c3.84,4.88,16.08,17.49,15.23,16.61
			c7.13,7.36,7.81,7.86,13.37,12.38c18.38,15.18,32.63,25.09,51.92,30.23c5.54,1.48,11.23,2.72,16.75,3.93
			c4.81,0.69,3.49,2.01,29.27,3.72c6.25,0.37,12.22,0.73,18.39,0.15c61.68-5.85,83.42-26.9,111.81-81.81
			c26.27,27.28,27.11,25.02,38.27,29.73l1.59,0.69c19.43,8.49,46.55,13.71,67.51,13.71c8.01,0,11.61-1.06,17.02-2.17
			c22.56-5.23,33.46-9.49,55.89-27.35c37.49-29.79,51.16-82.64,41.79-120.28c8.53-3.64,20.46-11.27,25.83-14.66
			c7.28-5.06,14.81-8.78,24.44-22.06c7.39-10.17,15.68-30.65,15.62-30.52c3.56-8.18,4.19-9.75,6.65-16.66
			C1752.86,1130.95,1749.89,1090.87,1738.9,1062.26z"/>
	</g>
	<g>
		<path class="st1" d="M303.74,848.46c-3.55,0-6.06,1.96-7.95,4.97c-0.43,0.68-0.39,0.83-1.26,2.63c-0.74,1.52-1.42,3.24-1.24,4.97
			c0.44,4.24,2.62,7.32,9.81,8.22c1.18,0.15,2.42-0.13,3.57-0.32c5.2-0.87,8.85-6.86,6.82-12.8
			C312.37,852.84,308.06,848.46,303.74,848.46z"/>
		<path class="st1" d="M265.62,830.17c-1.33-0.94-3.15-1.2-4.72-1.31c-1.69-0.11-3.27,0.62-4.81,1.31c-2.33,1.05-4.94,4.57-5.1,9.4
			c0.02,0.14-1.73,5.99,4.17,9.19c10.54,5.71,19.32-5.94,13.99-15.08C268.25,832.17,267.03,831.17,265.62,830.17z"/>
		<path class="st1" d="M297.58,832.06c-0.62-3.98-5.22-7.19-9.07-7.19c-4.04,0-7.78,2.89-8.18,7.37c-3.01,6.92,1.53,11.6,7.96,12.08
			C293.7,844.74,299.09,838.91,297.58,832.06z M286.46,832.28C286.46,832.28,286.46,832.28,286.46,832.28
			C286.46,832.28,286.46,832.28,286.46,832.28C286.46,832.27,286.46,832.27,286.46,832.28
			C286.46,832.27,286.46,832.28,286.46,832.28z M286.69,836.98C286.69,836.98,286.69,836.98,286.69,836.98
			C286.69,836.98,286.69,836.98,286.69,836.98C286.69,836.98,286.69,836.98,286.69,836.98
			C286.69,836.98,286.69,836.98,286.69,836.98z"/>
		<path class="st1" d="M274.71,797.09c-1.42-1.02-3.51-1.37-5.24-1.5c-6.91-0.53-12.31,10.68-6.44,17.17
			c1.18,1.31,2.69,1.99,4.31,2.6c7.45,2.81,14.35-7.04,10.68-14.81C277.3,799.03,276.05,798.05,274.71,797.09z"/>
		<path class="st1" d="M305.29,781.51c-2.78,10.82,12.79,15.1,17.57,5.6c1.32-2.63,1.85-5.93,0.79-8.75
			C319.86,768.28,305.93,770.89,305.29,781.51z M312.86,784.08C312.86,784.08,312.86,784.08,312.86,784.08
			C312.86,784.08,312.86,784.08,312.86,784.08C312.86,784.08,312.86,784.09,312.86,784.08
			C312.86,784.09,312.86,784.09,312.86,784.08z"/>
		<path class="st1" d="M244.8,770.94c1.1-7.82-5.83-12.32-11.16-10.94c-2.56-0.06-5.09,1.39-6.17,4.58
			c-0.9,2.66-1.79,5.47-0.83,8.27C229.56,781.32,243.42,781.14,244.8,770.94z"/>
		<path class="st1" d="M234.58,811.15c-2.26,11.17,10.51,15.36,16.38,7.18c4.03-5.6-0.28-15.48-8.1-15.48
			C239.69,802.86,234.72,806.97,234.58,811.15z"/>
		<path class="st1" d="M287.95,761.33c6.67-1.68,9.05-12.37,3.47-17c-3.28-2.7-6.14-3.14-9.27-2.33c-1.83,0.47-3.12,0.98-4.72,3.26
			C270.24,755.39,278.97,763.59,287.95,761.33z M281.57,751.88C281.57,751.89,281.57,751.89,281.57,751.88
			C281.57,751.89,281.57,751.89,281.57,751.88C281.57,751.89,281.57,751.89,281.57,751.88
			C281.57,751.89,281.57,751.88,281.57,751.88z"/>
		<path class="st1" d="M317.72,758.07c3.87-6.38-0.97-16.05-9.23-13.95c-1.92,0.49-3.85,2.38-4.65,3.72
			c-1.81,2.41-3.52,5.05-2.3,8.73C303.86,763.54,313.45,765.14,317.72,758.07z"/>
		<path class="st1" d="M300.34,717.26c3.67,3.22,7.91,3.6,11.43,1.67c7.58-4.21,5.72-16.22-2.03-18.42
			C299.34,697.51,295.11,712.69,300.34,717.26z M311.23,711.88C311.24,711.99,311.24,712,311.23,711.88
			C311.23,711.88,311.23,711.88,311.23,711.88z"/>
		<path class="st1" d="M330.72,716.12c-3.06,1.92-3.57,3.69-4.53,5.43c-3.5,6.33-0.54,12.84,7.97,13.36c4.73,0.3,9.8-4.36,9.5-10.81
			C343.39,718.39,335.54,713.06,330.72,716.12z"/>
		<path class="st1" d="M337.59,675.24c2.65-2.77,3.52-6.85,2.74-10.13c-2.3-9.63-15.15-8.74-16.77-2.07
			c-0.81,3.35-1.35,5.84-0.76,8.37C323.53,674.58,333.25,679.8,337.59,675.24z"/>
		<path class="st1" d="M274.55,682.24c7.6-1.62,10.99-16.69-0.48-19.26C259.29,659.66,258.08,685.75,274.55,682.24z"/>
		<path class="st1" d="M299.18,593.72c-1.23,0.5-2.29,1.38-2.92,2.61c-1.55,3.08-2.95,6.47-1.62,9.93c1.26,3.25,3.62,5.33,6.86,6.13
			c6.62,1.66,11.58-3.19,11.88-9.94C313.68,595.8,305.54,589.04,299.18,593.72z M305.5,600.53
			C305.5,600.53,305.5,600.53,305.5,600.53C305.5,600.52,305.5,600.52,305.5,600.53C305.5,600.53,305.51,600.53,305.5,600.53
			C305.51,600.53,305.51,600.53,305.5,600.53z M306.86,603.77c0,0.01,0,0.01,0,0.02C306.86,603.78,306.86,603.77,306.86,603.77
			C306.86,603.77,306.86,603.77,306.86,603.77z M306.84,603.64C306.84,603.64,306.84,603.64,306.84,603.64c0,0.01,0,0.01,0,0.01
			C306.84,603.65,306.84,603.65,306.84,603.64C306.84,603.64,306.84,603.64,306.84,603.64z M306.83,603.53c0,0.01,0,0.02,0,0.03
			c0,0,0,0-0.01,0c0-0.01,0-0.01,0-0.02C306.83,603.54,306.83,603.53,306.83,603.53z"/>
		<path class="st1" d="M273.96,607.13c1.83-2.04,1.97-2.91,2.5-4.34c0.82-2.2,0.61-6.06-1.06-8.76c-3.8-6.18-13.93-5.72-16.33,2.78
			C253.84,608.51,268.78,612.95,273.96,607.13z"/>
		<path class="st1" d="M300.85,560.64c0.28-5.1-3.41-10.25-9-10.25c-1.84,0-3.61,0.75-5.03,1.87c-2.94,1.8-4.36,7.73-4.24,9.99
			C283.12,572.69,300.13,573.71,300.85,560.64z"/>
		<path class="st1" d="M321.15,574.93c5.52-2.99,6.68-12.43-0.47-16.32c-6.94-3.75-13.53,2.56-11.94,11.05
			C309.87,575.64,316.18,577.64,321.15,574.93z"/>
		<path class="st1" d="M334.69,579.22c-10.89,3.74-10.42,15.82-1.07,18.68c8.07,2.46,14.5-6.62,10.88-13.92
			c-1.12-2.26-2.97-3.49-5.15-4.23C338.58,579.48,336.98,578.44,334.69,579.22z"/>
		<path class="st1" d="M360.24,508.9c-4.02-1.34-8.34,0.76-9.22,9.32c-0.38,3.92,2.64,8.42,8.4,8.72c1.85,0.1,3.92-0.53,4.78-1.12
			C372.59,520.01,367.69,509.09,360.24,508.9z"/>
		<path class="st1" d="M312.16,537.26c1.37,1.07,3.71,1.74,4.65,1.62c3.8-0.5,5.73-1.58,7.51-5.99c0.34-0.84,0.38-1.92,0.45-2.78
			c0.39-4.61-3.38-9.72-8.67-9.41C307.28,521.23,305.67,533.45,312.16,537.26z"/>
		<path class="st1" d="M360.31,433.41c-8.99,0-12.9,12.11-6.84,16.38c7.98,10.33,22.32-1.3,15.82-11.83
			C367.82,435.56,364.51,433.41,360.31,433.41z"/>
		<path class="st1" d="M418.2,428.45c-9.83-5.6-19.51,17-3.26,18.97c1.57,0.19,3.15-0.57,4.51-1.19c3.25-1.48,6.82-7.76,5.28-12.11
			C424.07,432.22,421.41,429.08,418.2,428.45z"/>
		<path class="st1" d="M413.34,397.58c2.25,0.65,5.02,0.21,6.94-1.08c7.58-5.07,4.71-16.37-5.13-16.37
			C404.3,380.12,403.02,396.53,413.34,397.58z"/>
		<path class="st1" d="M332.41,611.98c-0.26-4.15-3.09-7.75-7.16-8.25c-8.23-3.55-16.75,12.49-7.51,17.5
			C325.69,625.55,332.88,619.59,332.41,611.98z M324.32,616.07c-0.04,0.01-0.12,0.01-0.16,0.01
			C324.21,616.08,324.26,616.08,324.32,616.07z"/>
		<path class="st1" d="M261.68,705.1c3.72-2.69,4.99-6.82,3.76-10.61c-2.26-6.97-11.87-9.02-14.94-3.54
			c-2.43,4.32-4.42,7.63-2.11,12C250.75,707.4,258.14,707.65,261.68,705.1z"/>
		<path class="st1" d="M285.27,732.75c2.11-1.09,4.37-4.24,4.46-8.61c0.1-4.34-3.92-8.88-8.82-8.88c-4.12,0-7.87,2.85-8.53,7.13
			c-0.43,1.05-0.74,1.93-0.65,3.59C271.96,730.88,279.19,735.85,285.27,732.75z"/>
		<path class="st1" d="M311.14,634.06c0.16-1.71-0.43-4.52-2.44-6.69c-2.67-2.88-8.62-4.18-11.39-1.01
			c-0.87,1.01-1.72,2.03-2.48,3.13C286.68,641.28,309.43,652.58,311.14,634.06z"/>
		<path class="st1" d="M238.81,844.84c1.44-2.9,1.41-6.59-0.56-9.27c-8.42-11.46-21.33,1.62-15.35,9.5
			C226.16,850.86,235.77,850.95,238.81,844.84z"/>
		<path class="st1" d="M240.02,857.62c-4.58,1.6-5.09,4.59-5.93,6.73c-4.53,11.53,15.73,16.41,16.48,2.06
			c0.13-2.39-1.11-4.92-2.77-6.57C245.64,857.68,242.02,856.91,240.02,857.62z M246.56,867.22
			C246.56,867.22,246.56,867.22,246.56,867.22c0.01-0.01,0.01-0.02,0.02-0.03C246.57,867.2,246.56,867.21,246.56,867.22z"/>
		<path class="st1" d="M304.25,814.94c1-2.69,0.78-5.3-0.48-7.83c-2.09-4.24-8.94-6.03-12.66-2.47c-2.83,1.45-3.68,4.64-3.87,7.82
			C286.96,817.95,299.74,825.47,304.25,814.94z"/>
		<path class="st1" d="M350.81,599.93c-0.86-0.11-1.68,0.01-2.5,0.26c-2.71,0.34-4.2,2.11-5.53,4.42
			c-5.39,9.33,5.53,16.83,13.23,10.74C360.88,611.48,360.76,601.19,350.81,599.93z"/>
		<path class="st1" d="M355.79,552.59c-3.89,6.63,2.45,15.55,11.84,11.53c1.35-0.58,2.42-2.1,3.23-3.23
			c0.53-0.74,0.82-1.73,1.11-2.58c0.51-1.49,0.37-3.11,0.11-4.61C370.97,547.43,361.17,543.44,355.79,552.59z"/>
		<path class="st1" d="M341.32,486.85c0.14-1.52-0.6-3.29-1.28-4.59c-2.71-5.23-11.84-7.51-15.37,0.71
			C317.45,496.06,339.94,502.02,341.32,486.85z"/>
		<path class="st1" d="M315.21,486.88c0.14-9.27-12.38-12.8-15.91-5.15C292.43,496.63,314.98,502.13,315.21,486.88z"/>
		<path class="st1" d="M352.39,411.5c1.28,1.38,2.84,2.08,4.55,2.76c1.56,0.62,3.68,0.41,5.26,0.04c2.08-0.49,3.68-2.01,4.91-3.66
			c4.44-5.95-0.29-15.19-7.38-15.19c-4.69,0-8.04,3.77-8.59,6.3c-0.24,1.09-0.87,3.88-0.75,5.03
			C350.4,407.88,351.39,410.51,352.39,411.5z"/>
		<path class="st1" d="M412.17,347.91c6.01-11.15-7.29-18.77-13.65-12.95c-2.57,2.35-2.81,5.04-3.21,7.45
			c-0.61,3.77-0.01,6.33,3.35,8.59c2.13,1.44,4.82,1.32,4.43,1.32C406.36,352.49,410.54,350.95,412.17,347.91z"/>
		<path class="st1" d="M435.7,355.1c1.92-9.34-6.5-14.45-12.2-10.48c-0.66,0.46-2.34,0.92-3.37,2.94
			c-1.88,3.63-3.21,7.22-0.91,10.61C423.18,364,433.86,364.2,435.7,355.1z"/>
		<path class="st1" d="M469.27,319.6c-1.12,2.17-1.05,3.58-0.62,5.99c1.29,7.03,11.46,8.93,15.4,1.94c0.93-1.67,1.44-3.8,1.32-5.7
			C484.74,311.42,471.47,309.49,469.27,319.6z"/>
		<path class="st1" d="M434.27,324.25c-0.8-5.96-8.12-9.07-12.3-5.04c-3.31,1.87-5.85,9.75-1.99,13.33
			C426.08,338.23,435.61,334.23,434.27,324.25z"/>
		<path class="st1" d="M459.23,370.1c-10.32-3.36-16.68,14.78-4.2,18.04C466.53,391.12,470.22,373.66,459.23,370.1z"/>
		<path class="st1" d="M472.82,287.18c4.98-8.72-4.79-18.28-13.07-11.61c-1.38,1.1-2.35,3.16-2.61,4.84
			c-0.55,1.37-0.84,3.68-0.35,5.06C459.79,294.15,469.5,293,472.82,287.18z"/>
		<path class="st1" d="M499.13,283.61c-3.59-6.26-13.74-4.8-15.35,3.02c-1.14,3.54-1.47,6.56,1.25,9.29
			c2.59,2.59,6.62,3.42,10.83,1.13C500.56,294.49,501.67,288.02,499.13,283.61z"/>
		<path class="st1" d="M545.81,271.9c-6.47,1.74-8.39,13.57-1.53,16.52c9.14,3.97,15.88-3.24,14.03-11.88
			C557.3,271.82,551.62,268.18,545.81,271.9z"/>
		<path class="st1" d="M551.91,224.77c-0.1-10.42-13.5-12.28-16.63-4.04c-0.94,2.44-2.05,4.97-1.31,7.65
			C536.38,237.1,552.06,236.96,551.91,224.77z"/>
		<path class="st1" d="M570.17,223.72c-2.67,0-5.76,1.95-6.63,3.75c-1,2.05-2.26,4.21-2.26,6.55c0,2.78,1.95,5.81,4.53,6.94
			c9.76,4.24,16.06-6.85,11.59-13.29C575.53,224.98,572.92,223.72,570.17,223.72z"/>
		<path class="st1" d="M692.61,195.83c-2.32-0.15-4.4,0.87-5.93,3.38c-8.56,14.04,8.72,18.85,15.14,12.29
			C707.42,205.81,702.68,193.67,692.61,195.83z"/>
		<path class="st1" d="M723.02,177.64c0.08-7.32-10.43-12.43-15.65-6.15c-2.55,3.06-3.06,9.47-0.65,12.46
			C712.01,190.5,722.92,188.31,723.02,177.64z"/>
		<path class="st1" d="M730.99,186.83c-1.35,1.32-2,3.28-2.07,3.41c-2.1,4.3-0.77,7.17,1.33,9.49c2.14,2.34,8.01,3.44,11.67,0.74
			c3.18-2.36,4.65-6.45,3.28-10.53C743.21,183.98,735.46,182.4,730.99,186.83z"/>
		<path class="st1" d="M784.84,149.97c1.56,0.51,3.55,0.08,5.07-0.33c2.43-0.67,4.94-3.03,5.92-6.95
			c1.36-5.46-3.02-11.51-9.55-11.06c-4.37,0.31-7.56,3.64-7.91,7.53c-1.16,3.48-0.11,6.63,1.86,8.39
			C781.66,149.04,784.25,149.78,784.84,149.97z"/>
		<path class="st1" d="M811.55,149.53c-0.9,0.28-2.94,0.53-4.03,2.14c-1.68,2.48-3.54,4.97-3.31,8.18c0.31,4.62,3.04,6.45,6.15,7.47
			c7.63,2.5,14.43-4.64,11.79-12.18C820.63,150.81,815.81,148.23,811.55,149.53z"/>
		<path class="st1" d="M851.29,112.02c-1.95-1.11-3.31-1.06-4.94-1.15c-0.86-0.05-1.72,0.28-2.56,0.45
			c-1.62,0.32-3.43,1.93-4.1,2.53c-1.57,1.39-3.06,4.79-2.68,8.06c-0.13,6.96,7.57,9.86,12.48,7.63c4.9-2.23,6.65-6.97,6.2-10.72
			C855.36,115.98,854.18,113.68,851.29,112.02z"/>
		<path class="st1" d="M895.33,148.28c-1.87-6.66-12.49-8.53-16.23-0.27c-4.65,7,1.25,14.38,10.05,12.37
			C891.55,159.84,897.12,154.64,895.33,148.28z"/>
		<path class="st1" d="M890.2,183.16c-5.11,4.6-3.13,13.43,4.25,14.48c6.74,0.95,12.17-4.85,10.17-11.1
			C903.36,182.59,894.57,178.37,890.2,183.16z"/>
		<path class="st1" d="M920.06,165.68c-1.98,0.12-4.69,1.48-6.26,3.97c-6.66,7.45-0.87,15.9,9.64,13.74c4.84-0.98,8.21-8.54,4.32-14
			C925.96,166.88,922.52,165.53,920.06,165.68z"/>
		<path class="st1" d="M1002.8,151.61c-1.63-6.01-9.97-8.78-15.23-2.04c-0.6,0.77-1.22,1.6-1.55,2.54
			c-0.58,1.62-0.71,1.95-0.76,3.69c-0.02,0.71,0.17,1.91,0.39,2.4C990.31,169.05,1006.01,163.52,1002.8,151.61z"/>
		<path class="st1" d="M1017.34,184.91c-1.24-0.39-2.5-0.31-3.78-0.06c-3.1-0.53-6.25,1.01-7.48,5.06c-1,3.29-1.85,7.04,0.25,10.13
			c5.71,8.38,20.9,3.73,18.31-7.64C1024.17,190.35,1021.63,186.26,1017.34,184.91z"/>
		<path class="st1" d="M1232.51,279.08c-3.99-5.57-12.96-4.43-15.3,1.54c-0.1,0.25-0.88,2.48-1.02,2.96
			c-0.89,3.2,1.07,7.39,4.26,8.51c2.2,0.78,2.12,0.92,4.59,0.92C1232.77,293.01,1236.58,284.78,1232.51,279.08z"/>
		<path class="st1" d="M1255.32,301.26c-4.5-1.59-13.56,4.79-8.66,12.72c4.74,7.68,16.65,4.96,16.62-5.06
			C1263.27,305.18,1259.75,301.55,1255.32,301.26z"/>
		<path class="st1" d="M1278.92,282.79c-0.07-3.82-3.31-8.09-8.57-8.09c-8.99,0-12.23,13.36-1.82,16.53
			C1274.38,293.01,1279.03,288.02,1278.92,282.79z"/>
		<path class="st1" d="M1316.16,324.16c1.37-0.85,2.44-2.26,3.2-4.56c1.77-5.37-3.52-12.4-8.96-11.38c-0.15,0.03-3.05-0.32-5.17,2.1
			C1296.12,320.69,1306.89,329.93,1316.16,324.16z"/>
		<path class="st1" d="M1303.94,405.98c6.79-5.53,2.3-16.12-5.89-16.12c-3.48,0-5.05,2.09-6.72,5.05
			c-1.94,3.39-0.72,9.88,4.24,11.77C1299.33,408.12,1302.14,407.44,1303.94,405.98z"/>
		<path class="st1" d="M1349.99,406.12c3.6-2.99,4.58-7.24,1.98-12.2c-0.66-1.26-1.98-2.13-3.13-2.85
			c-1.15-0.73-2.78-0.86-4.09-0.86c-4.85,0-10.42,6.15-8.52,12.34C1337.74,407.48,1346.14,409.33,1349.99,406.12z"/>
		<path class="st1" d="M1352.81,429.87c0.64-9.13-12.69-13.78-16.01-3.57c-0.46,1.2-0.91,2.48-0.79,3.79
			c0.37,3.64,2.32,6.16,5.39,7.99C1345.47,440.49,1352.25,438.18,1352.81,429.87z M1348.42,430.12c-0.04,0.11-0.08,0.23-0.12,0.34
			C1348.34,430.33,1348.35,430.29,1348.42,430.12z"/>
		<path class="st1" d="M1382.55,415.79c-6.48,0-12.05,9.74-6.51,14.71c1.98,2.16,6.93,3.34,10.63,0.73
			C1393.33,426.57,1390.31,415.79,1382.55,415.79z M1386.29,426.88c0.02-0.03,0.06-0.08,0.08-0.1
			C1386.35,426.81,1386.31,426.86,1386.29,426.88z"/>
		<path class="st1" d="M1417.19,536.19c-4.79-5.52-11.63-3.31-13.64,1.09c-7.46,12.44,8.28,16.93,13.25,9.98
			c1.81-2.53,2.27-5.13,1.88-7.16C1418.42,538.69,1418.16,537.32,1417.19,536.19z"/>
		<path class="st1" d="M1439.09,575.59c4.86-0.49,8.7-5.29,7.06-11.66c-0.79-3.06-4.76-5.98-9.3-4.94c-3.14-0.07-4.71,1.75-6.31,4.5
			c-1.17,2.02-1.45,5.08,0.16,7.98C1431.82,573.49,1435.95,575.9,1439.09,575.59z"/>
		<path class="st1" d="M1421.02,598.65c-1.19-2.01-4.59-4.12-8.13-3.58c-6.68-0.03-10.26,11.34-4.63,15.08
			C1416.33,615.52,1425.9,606.83,1421.02,598.65z"/>
		<path class="st1" d="M1449.09,598.08c-2.89-1.54-6.34-0.48-7.74,1.39c-1.61,2.16-3.1,4.39-2.96,7.23
			c0.31,6.31,7.59,9.27,12.38,5.9C1455.91,608.99,1455.61,600.42,1449.09,598.08z"/>
		<path class="st1" d="M1439.12,634.86c6.87-1.89,7.49-14.34-0.84-15.83c-4.52-0.82-8.4,2.66-8.78,6.35
			c-0.09,0.92-0.11,1.78,0.03,2.6C1429.43,631.86,1433.46,636.4,1439.12,634.86z"/>
		<path class="st1" d="M1454.46,620.78c-0.16,0.35-0.33,0.71-0.49,1.07c-4.41,9.94,6.98,14.72,12.2,9.05
			c1.1-1.2,2.14-3.09,2.28-4.74c0.33-3.84-0.47-4.94-2.35-7.05c-0.8-0.91-2.29-1.53-3.44-1.78
			C1460.24,616.79,1455.99,617.51,1454.46,620.78z"/>
		<path class="st1" d="M1457.7,722.76c5.34-3.16,5.51-12.16-1.08-14.67c-7.41-5.72-17.99,8.97-7.91,15.07
			C1450.98,724.53,1454.28,724.79,1457.7,722.76z"/>
		<path class="st1" d="M1486.61,701.18c6.2-4.29,4.21-15.88-4.27-15.88c-4.11,0-8.59,4.31-7.63,9.62
			C1474.27,701.51,1481.6,704.64,1486.61,701.18z"/>
		<path class="st1" d="M1489,763.19c-3.73-6.47-14.3-4.87-14.42,5.25c-0.54,2.64,0.39,5.27,2.39,7.08
			C1483.19,781.13,1494.76,773.24,1489,763.19z"/>
		<path class="st1" d="M1441.87,793.65c-6.59-5.17-14.91,5.33-10.18,12.44c3.71,5.59,12.73,4.91,14.99-2.39
			C1447.82,800.03,1445.91,795.21,1441.87,793.65z"/>
		<path class="st1" d="M1465.87,809.83c-3.09-1.98-8.47-1.23-10.65,3.83c-7.65,12.08,14.83,19.55,15.17,3.49
			C1470.45,815.03,1469.17,811.95,1465.87,809.83z"/>
		<path class="st1" d="M1483.46,862.28c-0.98,1.9-2.03,4.24-1.65,6.38c1.69,9.22,12.96,8.59,15.9,1.9
			C1502.12,860.47,1487.45,854.53,1483.46,862.28z"/>
		<path class="st1" d="M1497.43,836.8c-8.96,3.07-4.19,20.11,7.27,13.91c1.96-1.07,3.87-3.99,3.75-7.8
			C1508.26,837.29,1501.77,833.87,1497.43,836.8z"/>
		<path class="st1" d="M1446.63,826.14c2.54-7.65-8.38-14.09-13.67-5.91c-2.42,3.77-1.6,8.07,1.24,10.23
			C1437.69,833.09,1444.5,832.69,1446.63,826.14z"/>
		<path class="st1" d="M1481.23,842.19c-1.67-1.09-5.86-1.95-8.67,1c-8.44,8.83,3.97,18.71,10.76,11.52
			C1486.26,851.59,1486.37,845.54,1481.23,842.19z"/>
		<path class="st1" d="M1516.99,783.21c-2.15-1.34-8.62-1.43-10.43,2.78c-6.08,14.14,13.19,16.14,14.31,5.49
			C1521.03,789.98,1520.27,785.24,1516.99,783.21z"/>
		<path class="st1" d="M1431.12,763.55c1.01-0.97,1.4-2.21,1.84-3.48c2.65-7.76-7.02-13.7-12.49-8.94
			c-3.58,2.43-4.45,9.66-0.64,13.09C1422.03,766.2,1427.38,767.2,1431.12,763.55z"/>
		<path class="st1" d="M1485.75,737.72c-6.3,11.34,9.61,16.5,13.26,7.28C1503.02,734.86,1490.69,728.9,1485.75,737.72z"/>
		<path class="st1" d="M1497.8,753.01c-2.07,1.41-4.19,5.49-3.85,8.2c1.35,11.16,18.02,7.9,15-4.08c-0.93-3.67-6-6.11-9.66-4.85
			C1498.78,752.52,1498.29,752.76,1497.8,753.01z M1507.88,760.38c-0.02,0.05-0.04,0.11-0.06,0.16
			C1507.84,760.48,1507.83,760.49,1507.88,760.38z"/>
		<path class="st1" d="M1445.25,683.72c-1.19,6.41,5.77,12.49,12.53,8.5c6.27-3.74,3.98-15.56-4.84-15.56
			c-0.91,0-1.86,0.14-2.58,0.44C1447.26,678.41,1445.34,681.62,1445.25,683.72z"/>
		<path class="st1" d="M1425.46,666.25c0.21-2.24,0.02-4.55-1.39-6.43c-3.51-4.72-10.15-4.38-12.68,0.37
			c-1.73,2.17-1.79,5.9-1.02,7.71C1413.83,676.01,1424.69,674.06,1425.46,666.25z"/>
		<path class="st1" d="M1480.96,635c0.54,2.86,0.7,4.84,2.86,6.9c3.69,3.53,10.6,3.27,12.88-4.17c1.43-4.58-2.13-10.65-8.11-10.65
			c-1.18,0-2.63,0.44-3.97,1.6c-0.77,0.38-1.46,0.9-2.03,1.54C1481.57,631.4,1480.65,633.39,1480.96,635z"/>
		<path class="st1" d="M1469.18,595.01c5.32,4.95,13.18,0.11,11.95-6.49c-0.27-1.4-0.52-3.49-2.65-5.09
			c-2.88-2.16-5.55-1.92-5.42-1.9C1466.15,581.56,1463.23,591.68,1469.18,595.01z"/>
		<path class="st1" d="M1477.88,657.03c-0.05-2.2-1.41-5.23-3.94-6.54c-5.94-6.05-15.19,1.57-12.13,10.38
			C1464.77,669.41,1478.11,667.79,1477.88,657.03z"/>
		<path class="st1" d="M1473.74,724.7c6.77-2.23,7.58-13.08,0.2-15.27c-3.6-2.29-9.42-0.87-10.21,6.17
			C1462.95,722.47,1468.89,726.28,1473.74,724.7z"/>
		<path class="st1" d="M1460.78,784.25c-1.17-1.19-3.53-2.1-5.46-1.99c-3.33,0.2-4.48,2.05-5.83,4.17
			c-1.64,2.56-1.71,5.87,0.14,8.32C1456.6,803.8,1468.25,791.85,1460.78,784.25z"/>
		<path class="st1" d="M1451.93,832.05c-3.61,0-6.16,2.75-6.62,6.18c-1.31,10.15,11.44,12.33,13.69,3.4
			C1460.24,836.67,1456.48,832.05,1451.93,832.05z"/>
		<path class="st1" d="M1438.63,877.48c-0.26,8.31,13.54,10.67,14.22-0.65c0.04-0.75-0.25-1.56-0.4-2.26
			C1450.96,867.77,1438.99,866.49,1438.63,877.48z"/>
		<path class="st1" d="M1427.98,830.01c-0.46-0.08-1.14-0.47-2.44-0.47c-5-0.01-7.37,5.36-5.72,10.01
			c2.56,7.15,12.35,5.58,13.33-1.22C1433.81,833.74,1431.11,830.57,1427.98,830.01z"/>
		<path class="st1" d="M1409.02,576.69c1.15-3.55-2.02-9.7-7.37-9.7c-2.74,0-4.99,1.5-6.07,3.45c-5.2,8.54,4.41,16.19,11.66,9.71
			C1408.21,579.28,1408.65,577.86,1409.02,576.69z"/>
		<path class="st1" d="M1369.26,549.46c-2.53,5.92-1.84,10.43,4.23,12.49c5.03,1.71,11.31-2.9,9.42-10.55
			C1381.57,546.08,1371.72,543.69,1369.26,549.46z"/>
		<path class="st1" d="M1374.5,531.11c-1.76,5.17,2.44,10.34,8.15,9.79c5.99-0.58,7.97-6.62,6.66-10.99
			C1387.71,524.56,1376.53,522.69,1374.5,531.11z"/>
		<path class="st1" d="M1398.62,491.33c2.87,1.92,6.79,1.26,9.14-1.13c1.07-1.09,1.45-2.39,1.93-3.79
			c2.32-6.94-6.06-14.33-13.06-8.16c-1.8,1.59-2.23,4.29-2.32,6.55c-0.08,2,1.07,3.86,2.41,5.22
			C1397.56,490.88,1398.36,491.16,1398.62,491.33z"/>
		<path class="st1" d="M1450.39,521.84c4.45-0.63,7.08-4.29,7.05-8.86c-0.02-3.14-3.39-7.68-7.54-7.68c-4.65,0-7.73,5.09-7.37,9.1
			C1442.96,519.4,1447.24,522.29,1450.39,521.84z"/>
		<path class="st1" d="M1343.58,470.95c-3.9,10.66,14.11,14.15,14.49,1.46c0.04-1.36-0.69-2.73-1.31-3.86
			C1353.87,463.29,1344.91,463.44,1343.58,470.95z"/>
		<path class="st1" d="M1294.88,444.31c0.22,5.8,5.36,8.36,9.89,7.23c3.28-0.81,4.83-4.94,4.86-8.15
			C1309.71,434.5,1294.5,433.83,1294.88,444.31z"/>
		<path class="st1" d="M1312.68,410.28c-1.52,2.96-1.8,6.1-0.13,8.97c3.07,5.19,11.75,4.4,14.18-1.16c0.92-2.11,1.21-4.4,0.4-6.6
			C1324.55,404.42,1315.37,405.01,1312.68,410.28z"/>
		<path class="st1" d="M1369.24,433.27c-0.73-1.19-1.69-1.82-2.82-2.56c-1.5-0.99-3.32-0.79-5.08-0.38
			c-2.78,0.64-6.41,6.18-5.02,10.1c1.25,3.53,4.77,5.86,9.31,4.61C1368.17,444.35,1372.22,438.1,1369.24,433.27z"/>
		<path class="st1" d="M1417.71,447.83c8.35-8.6-6.46-20.03-12.76-10.4c-0.85,1.31-1.38,3.69-0.74,6.52
			C1406,449.34,1413.12,452.57,1417.71,447.83z"/>
		<path class="st1" d="M1412.47,456.19c-0.86,2.25-2.51,5.92,0.09,9.42c4.42,5.96,13.8,4.42,14.46-4.97
			c0.23-3.37-2.56-7.56-6.69-7.77c-0.64-0.2-1.31-0.3-1.97-0.3C1415.56,452.57,1413.13,454.44,1412.47,456.19z"/>
		<path class="st1" d="M1343.46,335.88c9.81,0.49,10.45-16.16,0.17-15.96c-2.02,0.04-4.92,1.44-6.08,3.72
			c-0.55,1.09-1.18,2.21-1.31,3.43c-0.22,1.93-0.05,3.59,1,5.31C1338.28,334.11,1340.81,335.94,1343.46,335.88z"/>
		<path class="st1" d="M1254.73,264.07c1.19-2.65,1.48-6.66-0.47-9.17c-4.34-5.58-10.98-4.76-13.9,0.74
			c-0.88,1.66-1.37,3.98-0.5,7.38c0.3,1.15,1.12,1.92,1.88,2.76c0.97,1.06,2.69,1.51,3.98,1.96
			C1249.22,268.97,1253.32,267.17,1254.73,264.07z"/>
		<path class="st1" d="M1269.79,299.29c-0.89,1.78-1.15,4.68-0.41,6.27c4.36,9.38,15.77,4.48,14.24-5.01
			C1282.85,295.8,1273.26,292.34,1269.79,299.29z"/>
		<path class="st1" d="M1282.9,243.34c-1.11-0.77-2.23-1.6-3.64-1.73c-3.18-0.64-7.57,1.2-8.33,5.09c-0.56,2.88-0.31,4.67,0.19,6.73
			c0.32,1.31,1.27,2.24,2.13,3.2c0.85,0.94,2.15,1.3,3.29,1.66c1.2,0.38,2.91,0.04,4.05-0.28c2.61-0.74,4.38-3.14,5.07-5.64
			C1286.5,249.29,1285.65,245.24,1282.9,243.34z"/>
		<path class="st1" d="M1245.25,359.67c-0.66,2.52,0.59,6.23,2.36,7.91c5.41,5.74,15.57,1.07,12.89-8.52
			C1258.68,352.57,1247.77,349.99,1245.25,359.67z"/>
		<path class="st1" d="M1223.69,302.42c-1.73,3.1-1.46,7.16,1.32,9.63c4.24,3.78,10.94,1.77,12.56-2.62
			c0.95-1.92,0.8-3.56,0.35-5.33C1235.76,295.77,1225.96,295.52,1223.69,302.42z"/>
		<path class="st1" d="M1197.29,237.34c-6.92-1.76-11.76,7.06-7.73,12.45c1.02,1.37,1.82,2.57,3.4,3.22
			C1204.43,257.77,1208.53,240.23,1197.29,237.34z"/>
		<path class="st1" d="M1143.84,251.86c-4.27,0-7.58,3.85-7.07,8.16c-0.07,4.22,2.36,6.42,6.3,7.59c5.37,1.58,11.63-4.35,7.98-11.32
			C1149.96,254.18,1146.95,251.86,1143.84,251.86z M1149.57,259.08c0-0.02-0.01-0.05-0.01-0.07c0,0.02,0.01,0.03,0.01,0.05
			C1149.57,259.06,1149.57,259.07,1149.57,259.08z"/>
		<path class="st1" d="M1325.46,366.32c4.04-7.27-3.62-15.24-10.31-11.7c-2.48,0.99-3.49,3.08-4.32,5.87
			c-0.58,1.98-0.04,4.55,0.98,6.23C1314.85,371.72,1322.21,372.22,1325.46,366.32z"/>
		<path class="st1" d="M1076.74,138.73c-1.67,0-3.33,0.49-4.74,1.4c-4.44,2.86-5.01,9.85-0.15,13.78
			c6.39,5.15,15.3-2.83,12.21-10.16C1083.3,141.93,1079.89,138.73,1076.74,138.73z"/>
		<path class="st1" d="M1015.39,159.85c-1.43,2.08-1.04,4.49-0.53,6.94c1.82,8.57,14.99,8.97,16.59-1.24
			C1033.04,155.37,1018.71,150.33,1015.39,159.85z"/>
		<path class="st1" d="M968.07,177.47c-3.54-1.21-9,0.38-9.81,4.75c-0.58,3.08-0.76,3.73-0.19,6.54c0.37,1.82,2.63,4.28,6.42,4.93
			C974.21,195.41,978.87,181.11,968.07,177.47z"/>
		<path class="st1" d="M992.05,200.41c-3,1.03-3.71,3.09-4.27,4.62c-1.6,4.52-0.86,5.74,0.39,8.14c1.01,1.93,3.66,3.45,5.76,4.03
			c5.09,1.42,11.43-4.18,9.56-11.22C1002.25,201.32,995.9,199.1,992.05,200.41z"/>
		<path class="st1" d="M939.28,117.54c-10.17,0-10.8,17.4,0.72,17.96c1.29,0.06,2.23-0.47,3.32-1.04c2.13-1.12,3.32-3.51,4.01-5.71
			c1.01-3.27-0.35-5.69-0.97-6.91C944.92,119.01,941.05,117.54,939.28,117.54z"/>
		<path class="st1" d="M1102.58,190.46c-1.73,7.02,5.61,13.16,12.13,8.89c1.96-1.29,3.21-3.54,3.58-5.81
			C1119.97,183.23,1105.09,180.18,1102.58,190.46z"/>
		<path class="st1" d="M1001.41,168.23c-2.76-2.44-6.86-2.03-9.3,0.57c-5.85,6.26-3.16,14.38,4.95,14.71
			c3.54,0.15,8.35-3.67,7.92-8.97C1004.86,172.81,1003.85,170.38,1001.41,168.23z"/>
		<path class="st1" d="M914.8,188.33c-6.31,3.95-4.11,14.58,2.62,15.66c6.29,1.04,10.73-5.56,8.42-11.33
			C924.49,189.26,919.23,185.57,914.8,188.33z"/>
		<path class="st1" d="M794.66,169.73c4.94-11.87-8.43-16.85-13.1-11.4c-1.6,1.88-2.89,3.24-2.98,6.84
			c-0.01,0.37,0.04,0.75,0.13,1.12C779.31,175.21,791.74,176.69,794.66,169.73z"/>
		<path class="st1" d="M742.27,125.65c-1.25-0.77-2.65-0.84-4.07-0.92c-1.87-0.1-3.62,1.14-4.95,2.45
			c-2.93,2.88-2.94,10.36,0.71,13.09C744.31,147.93,753.3,132.39,742.27,125.65z"/>
		<path class="st1" d="M812.18,135.96c3.36-5.52-0.38-11.89-4.86-12.34c-1.77-0.18-3.64-0.06-5,1.07c-1.26,1.05-2.49,1.65-3.09,3.15
			c-0.91,2.27-1.81,4.57-0.96,7.04C800.09,140.18,808.21,142.5,812.18,135.96z"/>
		<path class="st1" d="M837.41,168.31c-3.07,3.31-3.38,9.7,0.98,12.62c4.86,3.77,11.52,0.84,13.23-6.09
			C853.4,167.64,844.55,160.65,837.41,168.31z"/>
		<path class="st1" d="M800.92,171.14c-1.09-0.17-2.17-0.06-3.13,0.27c-1.45,0.5-3.17,1.74-3.72,3.24c-1.59,4.3-2.4,7.07,1.11,10.51
			c5.44,5.33,15.5,0.14,13.15-8.78C807.82,174.46,805.19,171,800.92,171.14z"/>
		<path class="st1" d="M724.7,202.32c-4.12-1.27-8.21,1.87-8.52,5.02c-0.36,3.57-0.93,6.59,2.67,10.11c2.04,1.99,5.51,2.43,8.1,1.5
			c4.87-1.76,6.55-8,4.82-11.51C730.3,204.43,728.08,202.43,724.7,202.32z"/>
		<path class="st1" d="M589.28,181.6c-0.68,0.72-0.92,1.12-1.94,4.39c-3.45,11.13,16.12,14.87,15.77,0.33
			C602.97,179.14,593.95,175.27,589.28,181.6z"/>
		<path class="st1" d="M625.78,192.64c-2.01-1.96-4.95-2.57-7.51-1.62c-7.34,1.83-11.53,16.78,1.8,17.61
			C627.09,209.05,632.2,198.91,625.78,192.64z M624.19,202.09C624.19,202.09,624.19,202.09,624.19,202.09c0-0.01,0-0.01,0-0.02
			c0,0,0,0,0,0C624.19,202.07,624.19,202.08,624.19,202.09z"/>
		<path class="st1" d="M622.81,167.47c-4.31-6.47-14.33-4.74-15.53,4.28c-0.25,1.94-0.15,4.14,1.07,5.78
			c0.87,1.17,1.93,2.21,3.31,2.74C622.05,184.21,627.13,173.96,622.81,167.47z"/>
		<path class="st1" d="M638.68,174.3c-7.33,6.85-2.48,15.45,5.63,15.31c5.95-0.1,10.37-8.08,6.72-14.71
			C648.61,170.52,642.17,169.46,638.68,174.3z M650.37,180.56C650.37,180.56,650.37,180.56,650.37,180.56c0,0,0-0.01,0-0.01
			C650.37,180.55,650.37,180.55,650.37,180.56z"/>
		<path class="st1" d="M638.01,161.78c7.83-3.07,7.6-12.36,1.42-15.84c-1.2-0.68-2.77-0.92-4.18-0.92c-3.32,0-5.74,1.81-6.48,3.65
			c-1.04,2.55-2.18,5.49-1.14,8.26C629.2,161.13,633.86,163.41,638.01,161.78z"/>
		<path class="st1" d="M620.79,249.99c0.46,3.16,2.68,5.76,6.57,6.74c2.54,0.63,4.72-0.59,5.84-1.18
			c3.63-1.89,6.87-11.26,1.43-15.05C628.71,236.37,618.31,241.22,620.79,249.99z"/>
		<path class="st1" d="M567.01,215.1c3.17-4.61,2.7-9.17,0.7-11.73c-1.29-1.65-2.43-2.48-4.68-3.15c-2.05-0.62-6.16,0.47-7.56,2.41
			c-3.19,4.44-4.46,8.84-0.12,12.92C558.94,218.95,565.06,217.92,567.01,215.1z"/>
		<path class="st1" d="M489.64,240.15c13.63,4.89,16.92-17.12,3.13-17.12c-1.76,0-6.56,1.59-7.39,5.73
			c-0.69,3.48-0.52,4.6-0.08,6.73C485.68,237.28,487.87,239.52,489.64,240.15z"/>
		<path class="st1" d="M505.64,303.28c-3.03-3.35-9.95-2.84-11.82,1.58c-0.75,1.76-1.34,3.4-1.32,5.34
			c0.1,8.97,13.16,12.01,15.58,1.58c0.4-1.76,0.2-3.25-0.21-4.96C507.54,305.4,506.56,304.31,505.64,303.28z"/>
		<path class="st1" d="M437.75,386.81c-5.91,0-10.25,7.19-6.59,13.52c3.75,6.5,11.78,6.25,14.45,0.49
			c1.47-3.17,1.54-7.36-0.42-10.44C442.84,386.7,437.61,386.79,437.75,386.81z"/>
		<path class="st1" d="M1050.64,174.36c-2.62-2.02-6.29-1.83-8.27-0.28c-11.83,9.33-2.04,21.68,7.84,18.01
			c4.81-1.78,7.37-7.77,5.38-12.48C1054.59,177.27,1053.04,175.3,1050.64,174.36z"/>
		<path class="st1" d="M1232.86,239.13c12.28,1.1,14.34-12.91,6.59-17.03c-0.8-0.43-3.43-1.32-4.76-1.32
			c-4.16,0-9.33,4.44-9.25,10.97C1225.47,233.96,1229.13,238.79,1232.86,239.13z M1237.19,233.61c0,0,0.01,0,0.02-0.01
			c-0.02,0.02-0.05,0.04-0.07,0.06C1237.15,233.64,1237.17,233.62,1237.19,233.61z"/>
		<path class="st1" d="M1138,238.75c-0.31-1.42-1.29-2.46-2.2-3.5c-0.47-0.53-1.19-0.86-1.8-1.23c-5.93-3.58-15.33,5.14-10.47,12.87
			C1127.27,252.85,1140.51,250.1,1138,238.75z"/>
	</g>
	<g>
		<path class="st1" d="M1253.98,1161.2c-3.7,0-6.58,2.09-9.12,4.31c-7.51,6.56-5.18,23.9,10.8,23.35
			C1267.16,1188.46,1273.36,1161.2,1253.98,1161.2z"/>
		<path class="st1" d="M1559.06,1164.13c-2.25,1.17-4.12,4.43-4.76,7.28c-2.61,11.82,11.56,20.84,22.18,12.4
			c2.86-2.26,4.23-8.98,4.02-12.65C1579.84,1159.95,1566.33,1156.89,1559.06,1164.13z"/>
		<path class="st1" d="M1447.24,1204.9c-3.19-0.88-6.54,1.05-7.44,4.22c-0.51,1.79-0.71,13.11-4.87,19.31
			c-0.64,0.73-1.33,1.4-2.07,2.04c-8.46,5.91-20.77,1.26-23.59-13.27c-0.56-2.9-0.97-5.82-1.4-8.74c-0.67-4.54-8.13-6.48-11.06-1.45
			c-0.55,1.29-1.19,2.5-0.61,4.67c1.65,11.11,2.26,17.3,10.36,26.18c3.8,4.16,12.44,8.48,21.56,7.33c5.33-0.67,9.19-1.97,13.97-6.33
			c7.12-6.42,8.9-18.57,9.6-28.14C1451.88,1208.08,1449.69,1205.58,1447.24,1204.9z"/>
		<path class="st1" d="M201.88,1161.01c-17.44,0.72-16.49,31.43,4.85,27.73c5.84-1,10.92-7.61,9.61-15.97
			C215.22,1165.52,207.82,1160.77,201.88,1161.01z"/>
		<path class="st1" d="M510.21,1167.92c-2.98,0.41-7.71,3.69-9.57,8.79c-0.6,1.68-1.05,4.53-0.56,7.39
			c-0.47,6.36,4.36,11.36,10.21,12.45c12.44,2.32,20.8-8.48,18.67-17.59C526.69,1169.26,518.51,1166.74,510.21,1167.92z"/>
		<path class="st1" d="M376.19,1206.55c-3.31,0-6.27,2.81-6.19,6.18c0.08,3.2-0.32,8.69-1.07,12.25
			c-1.52,7.23-8.97,13.87-15.98,9.49c-8.41-5.65-7.95-9.77-10.02-23.37c-0.41-2.65-3.92-5.3-7.56-4.29c-3.06,0.83-4.78,4-4.3,7.56
			c0.6,4.4,1.59,9.01,2.43,12.81c3.18,14.26,21.89,27.32,35.73,17.32c3.37-2.43,4.95-4.41,7.27-7.56c2.76-3.73,4.43-8.26,4.93-11.55
			c0.49-3.27,1.24-10.38,0.94-12.67C381.97,1209.58,379.18,1206.55,376.19,1206.55z"/>
	</g>
	<g>
		<path class="st2" d="M483.52,979.43c-9.73,0-15.28,15.89-3.58,19.19c9.15,2.57,15.73-4.46,13.72-12.14
			C492.8,983.14,488.54,979.43,483.52,979.43z M482.68,987.14C482.68,987.14,482.68,987.14,482.68,987.14
			C482.68,987.14,482.68,987.14,482.68,987.14C482.68,987.13,482.68,987.13,482.68,987.14
			C482.68,987.13,482.68,987.13,482.68,987.14z"/>
		<path class="st2" d="M512.48,1002.84c-11.06,1.96-9.8,22.35,6,19.68c4.42-0.75,8.66-5.34,8.33-11.22
			C526.36,1003.52,518.81,999.72,512.48,1002.84z"/>
		<path class="st2" d="M571.58,955.76c-2.75-7.27-11.59-7.44-15.23-2.77c-6.24,8.02-2.96,15.36,3.7,16.8
			C568.47,971.55,574.18,962.6,571.58,955.76z M559.68,958.44C559.68,958.44,559.68,958.44,559.68,958.44
			C559.68,958.44,559.68,958.43,559.68,958.44C559.68,958.43,559.68,958.43,559.68,958.44
			C559.68,958.43,559.68,958.43,559.68,958.44z"/>
		<path class="st2" d="M633.08,1033.79c-11.17,17.2,17.56,23.76,18.4,4.69C651.96,1028.51,637.85,1023.94,633.08,1033.79z"/>
		<path class="st2" d="M485.29,860.32c-1.14-1.95-2.76-3.85-4.83-4.86c-10.31-5.05-15.85,7.56-13.01,12.9
			c1.38,4.7,5.55,6.99,9.27,6.87C484.49,874.95,488.82,866.37,485.29,860.32z"/>
		<path class="st2" d="M364.28,996.5c0.28,0.61,0.73,1.17,1.28,1.65c2.31,2.74,6.25,3.8,9.7,2.74c6.44-1.97,8.67-10.69,5.26-15.18
			C372.65,975.31,359.09,985.02,364.28,996.5z"/>
		<path class="st2" d="M577.3,981.91c-2.01-6.69-10.22-8.33-14.42-4.74c-8.15,6.58-4.17,18.27,6.87,16.68
			C574.47,993.17,578.78,986.84,577.3,981.91z"/>
		<path class="st2" d="M599.76,964.64c-0.77,0.33-1.48,0.79-1.98,1.39c-3.48,4.17-5.32,7.26-2.76,12.18
			c2.15,4.13,9.33,6.04,13.65,2.92c4.32-3.12,5.83-8.46,4.49-11.73C611.29,964.85,604.88,960.87,599.76,964.64z"/>
		<path class="st2" d="M574.17,1093.21c-2.32,2.24-4.92,8.43-1.34,13.29c4.89,6.6,14.88,6.09,17.42-3.63
			c0.42-1.64,0.49-3.4,0.1-5.05C588.36,1089.49,579.81,1087.81,574.17,1093.21z"/>
		<path class="st2" d="M661.99,1179.86c-0.45,3.42,2.78,8.79,8.07,8.22c2.74,0.52,4.91,0.54,8.03-2.09c2.2-1.85,3.67-5.2,3.35-8.09
			C680.2,1166.46,664.13,1163.93,661.99,1179.86z"/>
		<path class="st2" d="M600.81,907.23c-1.93,1.7-3.59,6.8-3.47,9.42c0.52,10.36,14.84,12.19,18.35,1.15
			c0.21-0.62,0.5-2.56,0.35-3.79C615.04,905.87,607.01,901.78,600.81,907.23z"/>
		<path class="st2" d="M510.14,912.64c-2.53-0.78-5.52-0.4-7.72,1.03c-1.85,1.21-3.49,2.92-4.12,4.99c-0.98,3.2-1.73,6.76,0.4,9.73
			c2.15,3,4.9,4.5,8.57,4.3C519.09,932.03,520.39,915.78,510.14,912.64z"/>
		<path class="st2" d="M145.26,1304.46c-1.73,2.64-1.78,4.98-1.3,7.82c0.86,5.12,8.6,9.07,14.8,5.18c3.7-2.34,5.22-7.33,4.37-11.67
			C162.22,1301.24,148.8,1295.37,145.26,1304.46z"/>
		<path class="st2" d="M195.93,1269.55c-1.65-5.06-5.15-7.39-10.78-6.28c-8.08,1.6-10.9,15.4-2.65,19.33
			C191.75,1287.01,198.51,1277.47,195.93,1269.55z"/>
		<path class="st2" d="M248.37,1320.14c-0.7,0.59-1.88,2.41-2.31,3.36c-3.45,4.6-3.29,9.19-1.39,11.9
			c6.06,8.65,21.52,4.05,19.08-9.16C262.5,1319.54,254.88,1314.48,248.37,1320.14z M251.75,1326.99
			C251.75,1327,251.75,1327,251.75,1326.99C251.75,1327,251.75,1327,251.75,1326.99C251.75,1327,251.75,1326.99,251.75,1326.99
			C251.76,1326.99,251.76,1326.99,251.75,1326.99z"/>
		<path class="st2" d="M52.4,1184.13c-0.81,1.38-0.96,2.86-0.7,4.38c-0.09,8.68,10,13.71,14.93,8.48c2.21-2.34,3.47-5.39,3.26-8.64
			C69.28,1179.28,57.86,1174.74,52.4,1184.13z"/>
		<path class="st2" d="M79.74,1121.9c-8.84-2.75-16.45,9.66-9.09,16.49c6.39,6.61,15.46,2.04,15.93-7.18
			c0.1-1.84-0.58-3.38-1.27-5.01C84.78,1124.98,82.61,1122.79,79.74,1121.9z M68.56,1131.86c0.01-0.11,0.03-0.22,0.04-0.33
			C68.56,1131.81,68.58,1131.73,68.56,1131.86z M68.62,1131.42c0-0.02,0.01-0.04,0.01-0.06
			C68.61,1131.43,68.62,1131.41,68.62,1131.42z M68.76,1130.37c0,0.01,0,0.02,0,0.03C68.77,1130.3,68.77,1130.27,68.76,1130.37z"/>
		<path class="st2" d="M198.12,1290.47c-4.07-3.12-12.68-2.66-15.04,6.44c-4.97,10.34,9.89,17.83,17.73,6.68
			c1.18-1.69,1.98-4.66,1.09-7.95C201.69,1294.86,199.44,1291.49,198.12,1290.47z"/>
		<path class="st2" d="M264.12,1242.81c-2.05,3.4-3.06,6.4-0.81,9.72c5.51,8.13,20.44,4.14,18.12-8.79
			C280.47,1238.3,268.29,1233.53,264.12,1242.81z"/>
		<path class="st2" d="M1418.25,1043.37c-1.2,4.18,0.18,9.33,4.47,10.57c4.71,3.56,12.27,2.78,15.5-2.52
			c1.77-2.91,2.45-6.47,1.46-9.78C1437,1032.84,1421.73,1031.02,1418.25,1043.37z"/>
		<path class="st2" d="M1475.78,1020.24c-2.34-0.07-3.82,0.67-5.17,1.24c-2.52,1.09-4.07,5.1-4.88,7.45
			c-4.94,14.32,18.82,19.36,20.6,2.35c0.18-1.79-0.55-3.6-1.32-5.16C1483.55,1023.16,1480,1020.38,1475.78,1020.24z"/>
		<path class="st2" d="M1470.48,934.69c-2.25,1.8-4.02,6.49-3.7,9.4c1.73,15.05,21.58,12.65,21.59-1
			C1488.37,934.94,1478.58,928.18,1470.48,934.69z M1479.62,942.71C1479.62,942.71,1479.62,942.71,1479.62,942.71
			C1479.62,942.71,1479.62,942.71,1479.62,942.71C1479.62,942.71,1479.62,942.71,1479.62,942.71z"/>
		<path class="st2" d="M1575.56,980.75c-5.74,7.05-3.55,16.98,7.47,17.66c7.13,0.54,14.08-8.5,9.46-17.67
			C1589.29,974.37,1578.93,974.26,1575.56,980.75z"/>
		<path class="st2" d="M1583.47,950.97c5.99-0.05,9.51-5.93,9.27-11.15c-0.57-12.88-21.59-10.63-19.08,3.84
			C1574.97,947.44,1579.24,951,1583.47,950.97z"/>
		<path class="st2" d="M1634.38,953.71c-2.42,0.68-6.95,4.54-8.43,9.08c-2.82,8.78,9.61,15.4,17.16,8.95
			c1.75-1.49,3.05-3.75,3.4-6.03C1647.87,959.19,1643.42,952.52,1634.38,953.71z M1639.03,966.86c0-0.01,0-0.01,0-0.02c0,0,0,0,0,0
			C1639.03,966.84,1639.03,966.85,1639.03,966.86z"/>
		<path class="st2" d="M1308.02,899.09c-4.65,0-8.63,3.4-9.33,6.92c-1.42,2.48-1.74,5.2-0.79,7.91c1.37,3.25,0.82,2.09,2.46,4.2
			c1.95,2.5,8.08,4.46,13.25,1.47c4.95-2.87,6.44-10.95,2.96-15.79C1315.61,902.45,1310.94,899.09,1308.02,899.09z"/>
		<path class="st2" d="M1443.38,996.34c-0.55,0-0.4,0.04-1.61,0.04c-4.56,0-8.83,5.95-9.43,10.03c-0.66,2.35,0.12,5.01,1.16,7.21
			c2.48,5.27,14.08,8.52,18.19,0.36c2.42-4.4,2.42-10.39-1.67-14.76C1448.65,997.75,1445.9,996.34,1443.38,996.34z"/>
		<path class="st2" d="M1623.74,1085.67c-0.36,1.1-1.17,2.45-1.24,4.97c-0.15,5.64,5.37,9.49,10.83,9.46
			c5.69-0.03,9.83-5.33,9.92-11.12C1643.38,1080.29,1628.24,1071.85,1623.74,1085.67z"/>
		<path class="st2" d="M1694.31,1079.82c-9.24,13.86,18.18,26.67,21.06,5.53C1716.33,1078.35,1703.61,1065.94,1694.31,1079.82z"/>
		<path class="st2" d="M1690.02,1153.79c-5.1-0.51-10.42,3.15-11.31,9.55c-1.35,3.31-1,7.01,1.55,9.56
			c6.55,6.55,21.57,2.74,19.28-11.11C1699.23,1159.9,1695.59,1154.34,1690.02,1153.79z M1686.69,1163.87c0,0.01-0.01,0.01-0.01,0.02
			c0,0,0,0,0-0.01C1686.68,1163.88,1686.69,1163.87,1686.69,1163.87C1686.69,1163.87,1686.69,1163.87,1686.69,1163.87z
			 M1691.36,1166.63C1691.36,1166.63,1691.36,1166.63,1691.36,1166.63C1691.36,1166.63,1691.36,1166.63,1691.36,1166.63
			C1691.36,1166.62,1691.36,1166.62,1691.36,1166.63C1691.36,1166.62,1691.36,1166.63,1691.36,1166.63z"/>
		<path class="st2" d="M1657.29,1048.23c-6.68-0.5-12.46,7.78-10.59,14.17c3.77,12.78,22.62,9.55,21.25-3.45
			C1667.19,1052.21,1663.22,1048.68,1657.29,1048.23z"/>
		<path class="st2" d="M1546.33,875.03c0.23,1.48,0.87,2.49,1.72,3.56c2.61,5.92,11.68,7.88,17.15,1.71
			c2.01-2.27,3.15-5.37,2.86-8.43C1566.42,854.93,1543.9,858.96,1546.33,875.03z"/>
		<path class="st2" d="M1270.83,1025.21c2.82-10.99-12.24-16.03-17.57-7.74c-2.59,4.03-1.91,9.07,0.31,11.62
			C1258.06,1035.86,1268.44,1034.38,1270.83,1025.21z"/>
		<path class="st2" d="M1119.73,1215.13c-3.61,2.13-6.92,8.57-4.14,13.59c2.6,4.69,10.84,5.86,14.61,3.05
			C1137.8,1226.09,1130.65,1210.48,1119.73,1215.13z"/>
		<path class="st2" d="M1209.16,1286.9c-2.8,1.82-3.45,4.99-3.98,9.15c0.68,3.95,1.72,6.64,4.97,8.5
			c7.39,4.23,15.88-2.38,15.5-10.35C1225.35,1287.75,1217.89,1281.23,1209.16,1286.9z"/>
		<path class="st2" d="M1280.23,1270.57c-1.86,1.27-3.59,2.9-4.36,5.14c-0.83,1.43-1.88,3.51-2.28,4.99
			c-0.96,3.56,0.71,7.12,3.99,8.71c8.34,4.02,18.94-2.88,16.32-12.86C1292.23,1270.27,1284.38,1267.75,1280.23,1270.57z"/>
		<path class="st2" d="M1279.15,1306.58c-3.33-6.64-13.04-8.84-17.49,1.9c-1.28,3.11-0.8,7.23,1.72,9.62
			C1271.93,1326.19,1284.85,1317.8,1279.15,1306.58z"/>
		<path class="st2" d="M1368.92,1362.28c-4.42,0.29-8.07,2.41-9.81,8.86c-1.88,6.92,4.16,11.99,9.82,11.3
			c7.61-0.92,10.82-8.07,8.7-13.57C1376.67,1366.39,1371.95,1362.07,1368.92,1362.28z"/>
		<path class="st2" d="M1270.72,1394.88c-0.76,9.86,14.54,15.97,20.52,6.3c1.7-2.75,2.07-6.75-0.16-11.22
			C1286.71,1381.19,1271.75,1381.31,1270.72,1394.88z"/>
	</g>
</g>
</svg>
