<?xml version="1.0" encoding="utf-8"?>
<!-- Generator: Adobe Illustrator 23.0.3, SVG Export Plug-In . SVG Version: 6.00 Build 0)  -->
<svg version="1.1" id="Layer_1" xmlns="http://www.w3.org/2000/svg" xmlns:xlink="http://www.w3.org/1999/xlink" x="0px" y="0px"
	 viewBox="0 0 561.98 360.58" style="enable-background:new 0 0 561.98 360.58;" xml:space="preserve">
<style type="text/css">
	.st0{fill:#C1B3A0;}
	.st1{fill:#753A1C;}
	.st2{fill:#212830;}
	.st3{fill:#AA6130;}
	.st4{fill:#FFFFFF;}
	.st5{fill:#3C4858;}
</style>
<path class="st0" d="M551.39,175.25c-2.67-4-8.49-14.69-21.48-24.6c-6.61-5.06-22.46-10.85-31.19-12.87
	c-18.45-4.26-35.48-2.39-51.19,2.94c-6.55-25.4-11.46-31.99-18.78-48.41c-15.81-32.12-36.44-55.61-75.82-76.34
	C330.95,4.66,313.98-0.55,277.01,0.05c-33.1,2.8-55.66,7.48-99.97,63.08c-0.09,0.12-1.95,2.44-1.83,2.3
	c-0.88,1.1-1.77,2.21-2.63,3.33c-33.67-13.55-56.19-14.99-93.22-0.5c-16.91,6.61-43.08,25.56-51.2,34.23
	c-5.74,6.14-18.54,22.19-22.06,30.45c-14.05,32.99-2.54,68.43,26.53,89.43c-10.29,5.45-16.98,11.19-25.25,28.25
	c-12.26,25.13-7.8,38.14,2.85,55.68c1.23,2.02,2.93,4.62,5.16,6.71c4.4,4.14,14.48,11.8,26.5,18.34
	c11.02,5.99,26.13,8.47,40.55,12.47c51.21,14.19,93.45,15.06,146.33,16.72c10.78,0.35,35.81-1.74,50.66-3.32
	c0.13,0,61.63-1.24,65.05-1.41c6.07-0.29,12.19-1.18,18.23-1.77c32.66-3.15,14.61,1.16,72.69-10.03
	c37.53-7.26,61.83-18.89,95.23-52.51c15.62-15.57,20.91-30.22,24.1-38.08c4.55-11.09,6.3-18.03,7.15-36.76
	C562.52,201.81,560.27,189.46,551.39,175.25z"/>
</svg>
